HIERARCHY
ROOT Hips
{
	OFFSET 0.000000 0.000000 0.000000 
	CHANNELS 6 Xposition Yposition Zposition Yrotation Zrotation Xrotation 
	JOINT Lumbar
	{
		OFFSET 0.000000 0.000000 0.000000 
		CHANNELS 3 Zrotation Xrotation Yrotation
		JOINT Neck
		{
			OFFSET 0.000000 0.445665 0.000000 
			CHANNELS 3 Zrotation Xrotation Yrotation
			End Site
			{
				OFFSET 0.000000 0.227535 0.000000 
			}
		}
		JOINT RightShoulder
		{
			OFFSET 0.019635 0.377685 0.194865 
			CHANNELS 3 Zrotation Xrotation Yrotation
			JOINT RightElbow
			{
				OFFSET 0.000000 -0.243375 0.000000 
				CHANNELS 2 Zrotation Yrotation
				JOINT RightWrist
				{
					OFFSET 0.000000 -0.264825 0.000000 
					CHANNELS 2 Zrotation Xrotation
					End Site
					{
						OFFSET 0.006600 -0.176220 0.000990 
					}
				}
			}
		}
		JOINT LeftShoulder
		{
			OFFSET 0.019635 0.377685 -0.194865 
			CHANNELS 3 Zrotation Xrotation Yrotation
			JOINT LeftElbow
			{
				OFFSET 0.000000 -0.243375 0.000000 
				CHANNELS 2 Zrotation Yrotation
				JOINT LeftWrist
				{
					OFFSET 0.000000 -0.264825 0.000000 
					CHANNELS 2 Zrotation Xrotation
					End Site
					{
						OFFSET 0.006600 -0.176220 -0.000990 
					}
				}
			}
		}
	}
	JOINT RightHip
	{
		OFFSET 0.052140 -0.069960 0.075570 
		CHANNELS 3 Zrotation Xrotation Yrotation
		JOINT RightKnee
		{
			OFFSET 0.000000 -0.402270 0.000000 
			CHANNELS 1 Zrotation
			JOINT RightAnkle
			{
				OFFSET 0.000000 -0.404085 0.000000 
				CHANNELS 3 Zrotation Xrotation Yrotation
				End Site
				{
					OFFSET 0.204105 -0.089430 0.008415 
				}
			}
		}
	}
	JOINT LeftHip
	{
		OFFSET 0.052140 -0.069960 -0.075570 
		CHANNELS 3 Zrotation Xrotation Yrotation
		JOINT LeftKnee
		{
			OFFSET 0.000000 -0.402270 0.000000 
			CHANNELS 1 Zrotation
			JOINT LeftAnkle
			{
				OFFSET 0.000000 -0.404085 0.000000 
				CHANNELS 3 Zrotation Xrotation Yrotation
				End Site
				{
					OFFSET 0.204105 -0.089430 -0.008415 
				}
			}
		}
	}
}
MOTION
Frames: 14
Frame Time: 0.02
-0.00034 -0.00036 0.00024 33.4302 -31.67151 -7.69273 48.44805 2.76545 -3.72723 2.10855 -0.78966 -0.12306 -19.27066 -9.8685 0.62306 35.4296 90.52126 4.4186 0.99878 -28.78825 12.67551 -4.4521 49.65343 -100.80533 10.39407 -1.56186 46.71643 -0.80442 2.76715 -18.88512 -6.64391 -2.38953 -1.83687 49.02744 4.76394 4.15561 -24.57747 -6.78306 2.15107 1.72297
-7e-05 -0.00032 0.00018 33.44761 -31.69352 -7.6866 48.44117 2.7613 -3.70296 2.26722 -0.80102 -0.12329 -18.72944 -10.11802 0.79544 35.56869 90.58395 4.41843 0.99426 -27.90471 12.73736 -4.52363 49.72507 -100.59952 10.23111 -1.56088 46.72056 -0.8685 2.3767 -18.8823 -6.65206 -2.33004 -1.80952 49.03727 4.71912 3.94534 -24.57439 -6.7779 2.16489 1.73382
0.00019 -0.00028 0.00013 33.46504 -31.71552 -7.6805 48.4343 2.75717 -3.67878 2.42552 -0.81236 -0.12353 -18.18959 -10.36686 0.96728 35.70744 90.6467 4.41836 0.9898 -27.02327 12.79897 -4.59489 49.79654 -100.39403 10.06846 -1.55989 46.72469 -0.93238 1.98748 -18.87949 -6.66017 -2.27075 -1.78227 49.0471 4.67441 3.73561 -24.57132 -6.77276 2.17869 1.74464
0.00046 -0.00024 8e-05 33.48242 -31.73747 -7.67439 48.42744 2.75303 -3.65458 2.58373 -0.82368 -0.12377 -17.64996 -10.61563 1.13913 35.84611 90.70897 4.41814 0.98525 -26.14231 12.86062 -4.66619 49.86798 -100.18878 9.90596 -1.55891 46.72881 -0.99626 1.59824 -18.87669 -6.66829 -2.21145 -1.75501 49.05691 4.62972 3.52597 -24.56824 -6.76762 2.19247 1.75545
0.00073 -0.0002 2e-05 33.49975 -31.75943 -7.66824 48.42057 2.74889 -3.63027 2.74225 -0.83503 -0.12401 -17.10913 -10.86502 1.31152 35.98509 90.77178 4.41795 0.98076 -25.25958 12.92257 -4.73778 49.93954 -99.9834 9.74325 -1.55793 46.73293 -1.06035 1.20778 -18.87387 -6.67645 -2.15194 -1.72765 49.0667 4.58492 3.31582 -24.56516 -6.76247 2.20629 1.7663
0.00099 -0.00016 -3e-05 33.51739 -31.78149 -7.66222 48.41372 2.74478 -3.6064 2.90008 -0.84636 -0.12425 -16.57143 -11.1127 1.48218 36.12333 90.83479 4.41825 0.97641 -24.38097 12.98348 -4.80836 50.0108 -99.77771 9.58075 -1.55692 46.73706 -1.12377 0.82118 -18.87108 -6.68447 -2.09312 -1.70061 49.07659 4.54043 3.10701 -24.5621 -6.75735 2.22004 1.77706
0.00126 -0.00012 -9e-05 33.53442 -31.80333 -7.65596 48.40683 2.7406 -3.58165 3.05916 -0.85769 -0.12448 -16.02783 -11.36353 1.65614 36.26291 90.89545 4.41708 0.97147 -23.49478 13.04633 -4.88086 50.08264 -99.57272 9.41793 -1.55597 46.74117 -1.18846 0.42724 -18.86825 -6.69275 -2.03298 -1.67297 49.0863 4.49536 2.89575 -24.55899 -6.75218 2.2339 1.78798
0.00153 -8e-05 -0.00014 33.55196 -31.82537 -7.64992 48.4 2.73649 -3.55773 3.21702 -0.86903 -0.12473 -15.49003 -11.61149 1.82704 36.40126 90.96174 4.41815 0.96764 -22.61608 13.10756 -4.95165 50.15387 -99.36736 9.25554 -1.55499 46.74529 -1.25199 0.04005 -18.86545 -6.70079 -1.97405 -1.64587 49.09615 4.45082 2.68672 -24.55593 -6.74705 2.24767 1.79875
0.00179 -4e-05 -0.0002 33.57031 -31.84766 -7.64416 48.39312 2.73244 -3.53477 3.37375 -0.88036 -0.12498 -14.95765 -11.85594 1.99436 36.53814 91.02124 4.41849 0.96291 -21.74407 13.16616 -5.02014 50.2247 -99.16031 9.09302 -1.55389 46.7495 -1.31412 -0.33894 -18.86271 -6.70856 -1.91659 -1.61945 49.10629 4.40691 2.48043 -24.55294 -6.74197 2.26132 1.80932
0.00206 0 -0.00024 33.58456 -31.86855 -7.63684 48.38615 2.72798 -3.50613 3.53807 -0.89169 -0.12517 -14.38903 -12.1206 2.18274 36.68361 91.07872 4.41259 0.95659 -20.82611 13.23792 -5.10122 50.29887 -98.95925 8.9293 -1.55321 46.7534 -1.38434 -0.76527 -18.85967 -6.71792 -1.85066 -1.58918 49.1151 4.35934 2.25838 -24.54957 -6.73659 2.2756 1.82101
0.00233 4e-05 -0.00031 33.60711 -31.89235 -7.63275 48.37961 2.72444 -3.48954 3.68563 -0.90307 -0.12548 -13.90015 -12.34259 2.32637 36.81083 91.16665 4.42651 0.95794 -20.01002 13.28316 -5.15614 50.36531 -98.74799 8.76941 -1.5518 46.75781 -1.43746 -1.09163 -18.85725 -6.72394 -1.80259 -1.56702 49.12649 4.31952 2.06961 -24.54697 -6.73186 2.28858 1.83037
0.00256 7e-05 -0.00042 33.65568 -31.92453 -7.63799 48.37245 2.72307 -3.50576 3.7926 -0.91425 -0.12612 -13.60621 -12.4457 2.34479 36.88792 91.11726 4.43927 0.944 -19.4375 13.24493 -5.13466 50.41556 -98.48975 8.61014 -1.54726 46.76463 -1.4432 -1.14017 -18.85666 -6.72054 -1.80442 -1.56759 49.14679 4.30106 1.97342 -24.54682 -6.72893 2.29778 1.83304
0.00279 9e-05 -0.00055 33.71197 -31.95949 -7.64638 48.36609 2.72271 -3.53419 3.88151 -0.92555 -0.12687 -13.39748 -12.50566 2.31596 36.94633 91.13447 4.48113 0.9436 -18.9754 13.18222 -5.0874 50.45691 -98.22578 8.45711 -1.54226 46.77167 -1.43169 -1.08795 -18.85667 -6.71381 -1.82414 -1.57627 49.16923 4.29047 1.91081 -24.54738 -6.72665 2.30567 1.8334
0.00304 0.00011 -0.00067 33.76268 -31.99297 -7.65302 48.36052 2.72213 -3.55708 3.97538 -0.93702 -0.12756 -13.1644 -12.58737 2.31386 37.01377 91.27176 4.54739 0.96188 -18.48437 13.13746 -5.05536 50.49935 -97.97559 8.30697 -1.53813 46.77808 -1.42862 -1.08542 -18.85631 -6.70881 -1.83493 -1.58081 49.18961 4.27609 1.83153 -24.54739 -6.72408 2.31434 1.83504
